<svg xmlns="http://www.w3.org/2000/svg" width="38" height="14" viewBox="0 0 38 14">
    <g fill="none" fill-rule="evenodd">
        <path fill="#436DE0" d="M19.278 9.07c.84-.72 1.68-1.29 2.525-1.715 1.769-.89 3.497-1.102 5.12-.725 1.693.396 3.248 1.422 4.629 3.004.942 1.075 1.797 2.435 2.553 4.02l3.855-5.899c-.795-1.66-1.703-3.08-2.711-4.232C33.775 1.834 32.085.788 30.264.308c-1.71-.45-7.356-1.566-10.986 8.762"/>
        <path fill="#2DD0E9" d="M18.732 5.275c-.683.516-1.39.98-2.12 1.35-1.505.776-3.104 1.184-4.694.983-1.634-.204-3.256-1.06-4.783-2.81C6.259 3.8 5.415 2.513 4.619.882L.778 6.78c.834 1.707 1.731 3.069 2.646 4.127 1.66 1.89 3.423 2.946 5.236 3.042 2.218.117 6.243-.203 10.072-8.675"/>
    </g>
</svg>
