<svg xmlns="http://www.w3.org/2000/svg" width="30" height="30" viewBox="0 0 30 30">
    <g fill="none" fill-rule="evenodd">
        <path fill="#FD6868" d="M29.892 14.946c0 8.255-6.691 14.946-14.946 14.946C6.692 29.892 0 23.201 0 14.946 0 6.692 6.692 0 14.946 0c1.553 0 3.05.237 4.458.676l-1.17 3.686a11.042 11.042 0 0 0-3.288-.498c-6.11 0-11.082 4.972-11.082 11.082s4.971 11.082 11.082 11.082c6.11 0 11.082-4.971 11.082-11.082 0-3.68-1.803-6.945-4.571-8.962l2.295-3.115c3.722 2.72 6.14 7.115 6.14 12.077z"/>
        <path fill="#F8BD24" d="M14.946 7.728c-3.98 0-7.218 3.238-7.218 7.218s3.238 7.218 7.218 7.218 7.218-3.238 7.218-7.218a7.211 7.211 0 0 0-2.999-5.85l-2.291 3.109a3.351 3.351 0 0 1-1.928 6.095 3.357 3.357 0 0 1-3.353-3.354 3.357 3.357 0 0 1 4.302-3.216l1.17-3.684a7.195 7.195 0 0 0-2.119-.318z"/>
    </g>
</svg>
