<svg xmlns="http://www.w3.org/2000/svg" xmlns:xlink="http://www.w3.org/1999/xlink" width="23" height="29" viewBox="0 0 23 29">
    <defs>
        <linearGradient id="b" x1="50%" x2="50%" y1="0%" y2="100%">
            <stop offset="0%" stop-color="#AE76FF"/>
            <stop offset="100%" stop-color="#781AFF"/>
        </linearGradient>
        <path id="a" d="M14.07 22.185a3.171 3.171 0 0 1 4.336 1.164 3.183 3.183 0 0 1-1.162 4.344 3.17 3.17 0 0 1-3.26-.052c-2.126-1.271-2.848-1.263-4.991.025l-.046.027a3.172 3.172 0 0 1-4.337-1.164 3.183 3.183 0 0 1 1.162-4.344 3.169 3.169 0 0 1 3.261.052c2.126 1.271 2.847 1.263 4.99-.025l.047-.027zm8.485-6.034a3.183 3.183 0 0 1-1.162 4.343 3.169 3.169 0 0 1-3.261-.051c-2.126-1.272-2.847-1.264-4.99.024l-.047.027a3.169 3.169 0 0 1-3.26-.051c-2.126-1.272-2.848-1.264-4.991.024l-.046.027A3.172 3.172 0 0 1 .462 19.33a3.183 3.183 0 0 1 1.162-4.344 3.169 3.169 0 0 1 3.26.052c2.126 1.272 2.848 1.264 4.991-.024a3.169 3.169 0 0 1 3.307.024c2.125 1.272 2.847 1.264 4.99-.024l.046-.028a3.172 3.172 0 0 1 4.337 1.165zM9.92 6.1a3.183 3.183 0 0 1-1.162-4.344A3.171 3.171 0 0 1 13.095.592a3.183 3.183 0 0 1 1.162 4.344A3.171 3.171 0 0 1 9.921 6.1zm-4.149 7.198A3.183 3.183 0 0 1 4.61 8.954 3.171 3.171 0 0 1 8.947 7.79l.046.028c2.143 1.287 2.865 1.295 4.99.024a3.169 3.169 0 0 1 3.261-.052 3.183 3.183 0 0 1 1.162 4.344 3.171 3.171 0 0 1-4.382 1.137c-2.144-1.288-2.865-1.296-4.99-.024a3.17 3.17 0 0 1-3.262.051z"/>
    </defs>
    <use fill="url(#b)" fill-rule="evenodd" xlink:href="#a"/>
</svg>
